<?xml version="1.0" encoding="utf-8"?>
<!-- Generator: Adobe Illustrator 16.0.0, SVG Export Plug-In . SVG Version: 6.00 Build 0)  -->
<!DOCTYPE svg PUBLIC "-//W3C//DTD SVG 1.1//EN" "http://www.w3.org/Graphics/SVG/1.1/DTD/svg11.dtd">
<svg version="1.1" id="Layer_1" xmlns="http://www.w3.org/2000/svg" xmlns:xlink="http://www.w3.org/1999/xlink" x="0px" y="0px"
	 width="1280.523px" height="298.321px" viewBox="0 0 1280.523 298.321" enable-background="new 0 0 1280.523 298.321"
	 xml:space="preserve">
<path fill="#1D4699" d="M214.53,233.789c3.771,0,6.711,0.999,8.823,2.997c2.107,1.997,3.164,4.776,3.164,8.324
	c0,3.33-1.057,5.994-3.164,7.991c-2.112,1.997-5.052,2.997-8.823,2.997H61.362c-8.658,0-12.986-4.438-12.986-13.319V44.327
	c0-8.876,3.996-13.319,11.987-13.319c8.209,0,12.319,4.443,12.319,13.319v189.462H214.53z"/>
<path fill="#1D4699" d="M261.142,61.975c-4.443,0-7.939-1.332-10.489-3.996c-2.555-2.663-3.829-6.103-3.829-10.322
	c0-4.438,1.274-7.991,3.829-10.655c2.549-2.663,6.045-3.995,10.489-3.995c4.214,0,7.601,1.332,10.156,3.995
	c2.548,2.664,3.829,6.218,3.829,10.655c0,4.22-1.281,7.659-3.829,10.322C268.743,60.643,265.356,61.975,261.142,61.975z
	 M261.308,95.604c7.658,0,11.488,4.11,11.488,12.32v137.852c0,8.215-3.83,12.319-11.488,12.319c-7.882,0-11.82-4.104-11.82-12.319
	V107.925C249.488,99.715,253.426,95.604,261.308,95.604z"/>
<path fill="#1D4699" d="M399.655,93.606c22.643,0,39.791,6.274,51.444,18.814c11.654,12.543,17.481,30.914,17.481,55.106v78.249
	c0,8.215-3.829,12.319-11.487,12.319c-7.882,0-11.82-4.104-11.82-12.319v-76.252c0-18.198-4.318-31.966-12.944-41.288
	c-8.632-9.323-21.244-13.985-37.84-13.985c-17.044,0-30.54,5.552-40.498,16.648c-9.958,11.104-14.937,26.196-14.937,45.285v69.592
	c0,8.215-3.829,12.319-11.487,12.319c-7.883,0-11.822-4.104-11.822-12.319V107.925c0-8.21,3.939-12.32,11.822-12.32
	c7.658,0,11.487,4.11,11.487,12.32v14.317h0.667c5.994-9.1,14.037-16.148,24.141-21.144
	C373.959,96.104,385.89,93.606,399.655,93.606z"/>
<path fill="#1D4699" d="M647.721,237.452c2.664,3.111,3.995,6.217,3.995,9.322c0,3.555-1.056,6.327-3.163,8.324
	c-2.112,1.999-4.828,2.997-8.158,2.997c-3.776,0-6.992-1.664-9.655-4.994l-65.596-76.251l-33.964,25.639v43.287
	c0,8.215-3.829,12.319-11.488,12.319c-7.881,0-11.82-4.104-11.82-12.319V33.339c0-8.21,3.939-12.32,11.82-12.32
	c7.659,0,11.488,4.11,11.488,12.32v143.512l98.893-77.916c2.883-2.217,5.88-3.33,8.991-3.33c3.105,0,5.712,0.947,7.825,2.831
	c2.106,1.889,3.162,4.609,3.162,8.157c0,3.777-1.446,6.773-4.328,8.99l-62.933,47.948L647.721,237.452z"/>
<path fill="#E61F33" d="M694.732,67.887c-6.257,0-11.18-1.876-14.77-5.627c-3.597-3.751-5.393-8.595-5.393-14.536
	c0-6.248,1.796-11.253,5.393-15.004c3.59-3.75,8.513-5.626,14.77-5.626c5.934,0,10.704,1.876,14.301,5.626
	c3.592,3.751,5.393,8.756,5.393,15.004c0,5.941-1.801,10.785-5.393,14.536C705.437,66.011,700.666,67.887,694.732,67.887z"/>
<path fill="#1D4699" d="M694.831,95.604c7.659,0,11.488,4.11,11.488,12.32v137.852c0,8.215-3.829,12.319-11.488,12.319
	c-7.882,0-11.82-4.104-11.82-12.319V107.925C683.011,99.715,686.949,95.604,694.831,95.604z"/>
<path fill="#1D4699" d="M857.819,225.465c0,2.222-0.447,4.219-1.331,5.993c-4.663,9.324-11.437,16.431-20.313,21.311
	c-8.882,4.88-19.646,7.326-32.298,7.326c-17.981,0-32.248-5.438-42.788-16.317c-10.545-10.872-15.815-26.081-15.815-45.616V55.98
	c0-8.21,3.829-12.32,11.487-12.32c7.877,0,11.82,4.11,11.82,12.32v41.622h69.259c7.543,0,11.321,3.444,11.321,10.322
	c0,6.883-3.778,10.322-11.321,10.322h-69.259v80.247c0,13.318,3.216,23.475,9.657,30.467c6.436,6.993,15.426,10.488,26.97,10.488
	c7.991,0,14.703-1.664,20.146-4.994c5.438-3.33,9.708-8.102,12.819-14.317c1.774-3.772,4.88-5.661,9.323-5.661
	c3.106,0,5.604,1.057,7.492,3.163C856.873,219.752,857.819,222.359,857.819,225.465z"/>
<path fill="#1D4699" d="M1041.953,170.856c0,9.324-4.886,13.985-14.649,13.985H900.106c1.773,16.43,8.21,29.635,19.313,39.624
	c11.098,9.989,25.416,14.983,42.954,14.983c10.654,0,20.196-1.94,28.636-5.826c8.434-3.882,15.202-9.157,20.311-15.816
	c2.217-3.105,5.328-4.663,9.324-4.663c3.105,0,5.66,1,7.658,2.997c1.998,1.999,2.996,4.553,2.996,7.659
	c0,2.445-0.78,4.775-2.33,6.992c-7.107,9.324-16.43,16.54-27.97,21.644c-11.545,5.104-24.421,7.659-38.625,7.659
	c-12.877,0-24.589-1.999-35.129-5.994c-10.547-3.996-19.567-9.656-27.06-16.981c-7.492-7.326-13.268-16.093-17.315-26.306
	c-4.047-10.208-6.07-21.528-6.07-33.963c0-12.43,2.023-23.75,6.07-33.963c4.048-10.208,9.709-18.98,16.982-26.306
	c7.274-7.325,16.071-12.986,26.394-16.981c10.322-3.996,21.695-5.994,34.13-5.994c11.764,0,22.643,1.946,32.632,5.827
	c9.988,3.887,18.589,9.271,25.805,16.149c7.211,6.884,12.871,15.041,16.982,24.474
	C1039.898,149.494,1041.953,159.76,1041.953,170.856z M960.375,114.251c-7.991,0-15.374,1.223-22.144,3.663
	c-6.773,2.444-12.767,5.885-17.979,10.322c-5.219,4.443-9.49,9.771-12.819,15.982c-3.33,6.217-5.553,13.101-6.66,20.645h119.537
	c-2.444-15.316-8.99-27.579-19.645-36.794C990.01,118.86,976.577,114.251,960.375,114.251z"/>
<path fill="#1D4699" d="M1090.235,143.22c0,7.325,3.393,12.602,10.181,15.816c6.79,3.221,19.198,4.943,37.231,5.161
	c13.354,0,24.598,0.947,33.724,2.83c9.126,1.889,16.529,4.776,22.206,8.658c5.675,3.886,9.739,8.714,12.189,14.484
	c2.445,5.774,3.674,12.652,3.674,20.644c0,15.317-6.176,27.362-18.527,36.128c-12.352,8.772-29.536,13.153-51.565,13.153
	c-32.267,0-56.074-7.436-71.422-22.31c-2.222-2.216-3.33-4.995-3.33-8.324c0-3.33,0.999-5.994,2.997-7.993
	c1.997-1.997,4.438-2.995,7.325-2.995c2.216,0,4.048,0.447,5.494,1.331c1.441,0.89,2.83,1.889,4.162,2.997
	c5.994,5.327,13.538,9.438,22.643,12.321c9.1,2.887,19.313,4.327,30.634,4.327c15.092,0,26.913-2.565,35.461-7.705
	c8.543-5.14,12.819-12.174,12.819-21.112c0-4.017-0.832-7.533-2.496-10.552c-1.666-3.017-4.443-5.472-8.324-7.372
	c-3.888-1.898-8.991-3.298-15.317-4.193c-6.327-0.895-14.267-1.451-23.809-1.675c-12.876-0.219-23.756-1.218-32.631-2.997
	c-8.882-1.773-16.039-4.438-21.478-7.991c-5.441-3.548-9.323-7.991-11.654-13.319c-2.33-5.327-3.496-11.763-3.496-19.313
	c0-15.093,6.271-27.137,18.814-36.128c12.538-8.99,29.353-13.485,50.444-13.485c26.64,0,47.169,6.218,61.601,18.647
	c2.664,2.444,3.995,5.551,3.995,9.322c0,3.111-0.946,5.718-2.829,7.825c-1.889,2.112-4.387,3.163-7.492,3.163
	c-3.111,0-5.994-1.108-8.658-3.329c-5.774-4.662-12.652-8.325-20.644-10.988c-7.991-2.664-16.207-3.996-24.64-3.996
	c-14.651,0-26.196,2.555-34.63,7.658C1094.449,127.019,1090.235,134.12,1090.235,143.22z"/>
</svg>
